<svg width="100" height="100" viewBox="0 0 24 24" fill="none" xmlns="http://www.w3.org/2000/svg">
  <!-- Upper Blue Python -->
  <path fill="#3776AB" d="M12 0C9.794 0 8 1.794 8 4v2h8V4c0-2.206-1.794-4-4-4zM4 6H4c-2.206 0-4 1.794-4 4v2c0 2.206 1.794 4 4 4h4V6z">
    <animate attributeName="opacity" values="1;0.7;1" dur="1.5s" repeatCount="indefinite"/>
  </path>

  <!-- Lower Yellow Python -->
  <path fill="#FFD43B" d="M12 24c2.206 0 4-1.794 4-4v-2H8v2c0 2.206 1.794 4 4 4zM16 18h4c2.206 0 4-1.794 4-4v-2c0-2.206-1.794-4-4-4h-4v10z">
    <animate attributeName="opacity" values="1;0.7;1" dur="1.5s" repeatCount="indefinite"/>
  </path>

  <!-- Eye Circles -->
  <circle cx="7" cy="7" r="1.2" fill="white">
    <animate attributeName="r" values="1.2;2;1.2" dur="2s" repeatCount="indefinite"/>
  </circle>
  <circle cx="17" cy="17" r="1.2" fill="white">
    <animate attributeName="r" values="1.2;2;1.2" dur="2s" repeatCount="indefinite"/>
  </circle>

  <!-- Scaling Animation -->
  <animateTransform attributeName="transform" type="scale" values="1;1.05;1" dur="2s" repeatCount="indefinite"/>
</svg>
